<mxfile host="app.diagrams.net" modified="2023-06-04T23:29:44.037Z" agent="Mozilla/5.0 (Windows NT 10.0; Win64; x64) AppleWebKit/537.36 (KHTML, like Gecko) Chrome/112.0.0.0 Safari/537.36 OPR/98.0.0.0" etag="Ref3c19zu0O6oiaMQr5i" version="21.3.7" type="github">
  <diagram id="XMwrWmoNUrTni26uysBv" name="PÃ¡gina-1">
    <mxGraphModel dx="2348" dy="2109" grid="1" gridSize="10" guides="1" tooltips="1" connect="1" arrows="1" fold="1" page="1" pageScale="1" pageWidth="827" pageHeight="1169" background="none" math="0" shadow="0">
      <root>
        <mxCell id="0" />
        <mxCell id="1" parent="0" />
        <mxCell id="9IX5NWJ7heMDqvXkrwjq-1" value="&lt;font style=&quot;font-size:11px;font-family:Calibri;color:#000000;direction:ltr;letter-spacing:0px;line-height:120%;opacity:1&quot;&gt;Turno&lt;br&gt;&lt;/font&gt;" style="verticalAlign=middle;align=center;vsdxID=7;fillColor=#FFFFFF;gradientColor=none;shape=stencil(nZBLDoAgDERP0z3SIyjew0SURgSD+Lu9kMZoXLhwN9O+tukAlrNpJg1SzDH4QW/URgNYgZTkjA4UkwJUgGXng+6DX1zLfmoymdXo17xh5zmRJ6Q42BWCfc2oJfdAr+Yv+AP9Cb7OJ3H/2JG1HNGz/84klThPVCc=);strokeColor=#000000;spacingTop=-1;spacingBottom=-1;spacingLeft=-1;spacingRight=-1;labelBackgroundColor=none;rounded=0;html=1;whiteSpace=wrap;" vertex="1" parent="1">
          <mxGeometry x="-290" y="-610" width="82" height="30" as="geometry" />
        </mxCell>
        <mxCell id="9IX5NWJ7heMDqvXkrwjq-2" value="&lt;font style=&quot;font-size:11px;font-family:Calibri;color:#000000;direction:ltr;letter-spacing:0px;line-height:120%;opacity:1&quot;&gt;Ficha&lt;br&gt;&lt;/font&gt;" style="verticalAlign=middle;align=center;vsdxID=7;fillColor=#FFFFFF;gradientColor=none;shape=stencil(nZBLDoAgDERP0z3SIyjew0SURgSD+Lu9kMZoXLhwN9O+tukAlrNpJg1SzDH4QW/URgNYgZTkjA4UkwJUgGXng+6DX1zLfmoymdXo17xh5zmRJ6Q42BWCfc2oJfdAr+Yv+AP9Cb7OJ3H/2JG1HNGz/84klThPVCc=);strokeColor=#000000;spacingTop=-1;spacingBottom=-1;spacingLeft=-1;spacingRight=-1;labelBackgroundColor=none;rounded=0;html=1;whiteSpace=wrap;" vertex="1" parent="1">
          <mxGeometry x="-610" y="-590" width="82" height="30" as="geometry" />
        </mxCell>
        <mxCell id="9IX5NWJ7heMDqvXkrwjq-3" value="&lt;font style=&quot;font-size:11px;font-family:Calibri;color:#000000;direction:ltr;letter-spacing:0px;line-height:120%;opacity:1&quot;&gt;Dado&lt;br&gt;&lt;/font&gt;" style="verticalAlign=middle;align=center;vsdxID=7;fillColor=#FFFFFF;gradientColor=none;shape=stencil(nZBLDoAgDERP0z3SIyjew0SURgSD+Lu9kMZoXLhwN9O+tukAlrNpJg1SzDH4QW/URgNYgZTkjA4UkwJUgGXng+6DX1zLfmoymdXo17xh5zmRJ6Q42BWCfc2oJfdAr+Yv+AP9Cb7OJ3H/2JG1HNGz/84klThPVCc=);strokeColor=#000000;spacingTop=-1;spacingBottom=-1;spacingLeft=-1;spacingRight=-1;labelBackgroundColor=none;rounded=0;html=1;whiteSpace=wrap;" vertex="1" parent="1">
          <mxGeometry x="-770" y="-640" width="82" height="30" as="geometry" />
        </mxCell>
        <mxCell id="9IX5NWJ7heMDqvXkrwjq-4" value="&lt;font style=&quot;font-size:11px;font-family:Calibri;color:#000000;direction:ltr;letter-spacing:0px;line-height:120%;opacity:1&quot;&gt;Tablero&lt;br&gt;&lt;/font&gt;" style="verticalAlign=middle;align=center;vsdxID=7;fillColor=#FFFFFF;gradientColor=none;shape=stencil(nZBLDoAgDERP0z3SIyjew0SURgSD+Lu9kMZoXLhwN9O+tukAlrNpJg1SzDH4QW/URgNYgZTkjA4UkwJUgGXng+6DX1zLfmoymdXo17xh5zmRJ6Q42BWCfc2oJfdAr+Yv+AP9Cb7OJ3H/2JG1HNGz/84klThPVCc=);strokeColor=#000000;spacingTop=-1;spacingBottom=-1;spacingLeft=-1;spacingRight=-1;labelBackgroundColor=none;rounded=0;html=1;whiteSpace=wrap;" vertex="1" parent="1">
          <mxGeometry x="-420" y="-590" width="82" height="30" as="geometry" />
        </mxCell>
        <mxCell id="9IX5NWJ7heMDqvXkrwjq-5" value="&lt;font style=&quot;font-size:11px;font-family:Calibri;color:#000000;direction:ltr;letter-spacing:0px;line-height:120%;opacity:1&quot;&gt;Jugador&lt;br&gt;&lt;/font&gt;" style="verticalAlign=middle;align=center;vsdxID=7;fillColor=#FFFFFF;gradientColor=none;shape=stencil(nZBLDoAgDERP0z3SIyjew0SURgSD+Lu9kMZoXLhwN9O+tukAlrNpJg1SzDH4QW/URgNYgZTkjA4UkwJUgGXng+6DX1zLfmoymdXo17xh5zmRJ6Q42BWCfc2oJfdAr+Yv+AP9Cb7OJ3H/2JG1HNGz/84klThPVCc=);strokeColor=#000000;spacingTop=-1;spacingBottom=-1;spacingLeft=-1;spacingRight=-1;labelBackgroundColor=none;rounded=0;html=1;whiteSpace=wrap;" vertex="1" parent="1">
          <mxGeometry x="-420" y="-730" width="82" height="30" as="geometry" />
        </mxCell>
        <mxCell id="9IX5NWJ7heMDqvXkrwjq-6" value="" style="endArrow=block;endSize=16;endFill=0;html=1;rounded=0;" edge="1" parent="1" source="9IX5NWJ7heMDqvXkrwjq-9" target="9IX5NWJ7heMDqvXkrwjq-5">
          <mxGeometry width="160" relative="1" as="geometry">
            <mxPoint x="-510" y="-760" as="sourcePoint" />
            <mxPoint x="-400" y="-710" as="targetPoint" />
          </mxGeometry>
        </mxCell>
        <mxCell id="9IX5NWJ7heMDqvXkrwjq-7" value="" style="endArrow=block;endSize=16;endFill=0;html=1;rounded=0;" edge="1" parent="1" source="9IX5NWJ7heMDqvXkrwjq-8" target="9IX5NWJ7heMDqvXkrwjq-5">
          <mxGeometry width="160" relative="1" as="geometry">
            <mxPoint x="-520" y="-700" as="sourcePoint" />
            <mxPoint x="-400" y="-690" as="targetPoint" />
          </mxGeometry>
        </mxCell>
        <mxCell id="9IX5NWJ7heMDqvXkrwjq-8" value="&lt;font style=&quot;font-size:11px;font-family:Calibri;color:#000000;direction:ltr;letter-spacing:0px;line-height:120%;opacity:1&quot;&gt;Activo&lt;br&gt;&lt;/font&gt;" style="verticalAlign=middle;align=center;vsdxID=7;fillColor=#FFFFFF;gradientColor=none;shape=stencil(nZBLDoAgDERP0z3SIyjew0SURgSD+Lu9kMZoXLhwN9O+tukAlrNpJg1SzDH4QW/URgNYgZTkjA4UkwJUgGXng+6DX1zLfmoymdXo17xh5zmRJ6Q42BWCfc2oJfdAr+Yv+AP9Cb7OJ3H/2JG1HNGz/84klThPVCc=);strokeColor=#000000;spacingTop=-1;spacingBottom=-1;spacingLeft=-1;spacingRight=-1;labelBackgroundColor=none;rounded=0;html=1;whiteSpace=wrap;" vertex="1" parent="1">
          <mxGeometry x="-600" y="-730" width="82" height="30" as="geometry" />
        </mxCell>
        <mxCell id="9IX5NWJ7heMDqvXkrwjq-9" value="&lt;font style=&quot;font-size:11px;font-family:Calibri;color:#000000;direction:ltr;letter-spacing:0px;line-height:120%;opacity:1&quot;&gt;Inactivo&lt;br&gt;&lt;/font&gt;" style="verticalAlign=middle;align=center;vsdxID=7;fillColor=#FFFFFF;gradientColor=none;shape=stencil(nZBLDoAgDERP0z3SIyjew0SURgSD+Lu9kMZoXLhwN9O+tukAlrNpJg1SzDH4QW/URgNYgZTkjA4UkwJUgGXng+6DX1zLfmoymdXo17xh5zmRJ6Q42BWCfc2oJfdAr+Yv+AP9Cb7OJ3H/2JG1HNGz/84klThPVCc=);strokeColor=#000000;spacingTop=-1;spacingBottom=-1;spacingLeft=-1;spacingRight=-1;labelBackgroundColor=none;rounded=0;html=1;whiteSpace=wrap;" vertex="1" parent="1">
          <mxGeometry x="-290" y="-720" width="82" height="30" as="geometry" />
        </mxCell>
        <mxCell id="9IX5NWJ7heMDqvXkrwjq-10" value="" style="endArrow=diamondThin;endFill=1;endSize=24;html=1;rounded=0;" edge="1" parent="1" source="9IX5NWJ7heMDqvXkrwjq-13" target="9IX5NWJ7heMDqvXkrwjq-4">
          <mxGeometry width="160" relative="1" as="geometry">
            <mxPoint x="-560" y="-540" as="sourcePoint" />
            <mxPoint x="-450" y="-520" as="targetPoint" />
          </mxGeometry>
        </mxCell>
        <mxCell id="9IX5NWJ7heMDqvXkrwjq-11" value="1" style="edgeLabel;html=1;align=center;verticalAlign=middle;resizable=0;points=[];" connectable="0" vertex="1" parent="9IX5NWJ7heMDqvXkrwjq-10">
          <mxGeometry x="0.6641" y="2" relative="1" as="geometry">
            <mxPoint x="-9" as="offset" />
          </mxGeometry>
        </mxCell>
        <mxCell id="9IX5NWJ7heMDqvXkrwjq-12" value="*" style="edgeLabel;html=1;align=center;verticalAlign=middle;resizable=0;points=[];" connectable="0" vertex="1" parent="9IX5NWJ7heMDqvXkrwjq-10">
          <mxGeometry x="-0.6787" y="2" relative="1" as="geometry">
            <mxPoint x="-10" y="3" as="offset" />
          </mxGeometry>
        </mxCell>
        <mxCell id="9IX5NWJ7heMDqvXkrwjq-13" value="&lt;font style=&quot;font-size:11px;font-family:Calibri;color:#000000;direction:ltr;letter-spacing:0px;line-height:120%;opacity:1&quot;&gt;Casilla&lt;br&gt;&lt;/font&gt;" style="verticalAlign=middle;align=center;vsdxID=7;fillColor=#FFFFFF;gradientColor=none;shape=stencil(nZBLDoAgDERP0z3SIyjew0SURgSD+Lu9kMZoXLhwN9O+tukAlrNpJg1SzDH4QW/URgNYgZTkjA4UkwJUgGXng+6DX1zLfmoymdXo17xh5zmRJ6Q42BWCfc2oJfdAr+Yv+AP9Cb7OJ3H/2JG1HNGz/84klThPVCc=);strokeColor=#000000;spacingTop=-1;spacingBottom=-1;spacingLeft=-1;spacingRight=-1;labelBackgroundColor=none;rounded=0;html=1;whiteSpace=wrap;" vertex="1" parent="1">
          <mxGeometry x="-610" y="-490" width="82" height="30" as="geometry" />
        </mxCell>
        <mxCell id="9IX5NWJ7heMDqvXkrwjq-14" value="Controla" style="endArrow=open;endFill=1;endSize=12;html=1;rounded=0;" edge="1" parent="1" source="9IX5NWJ7heMDqvXkrwjq-8" target="9IX5NWJ7heMDqvXkrwjq-2">
          <mxGeometry width="160" relative="1" as="geometry">
            <mxPoint x="-340" y="-650" as="sourcePoint" />
            <mxPoint x="-180" y="-650" as="targetPoint" />
          </mxGeometry>
        </mxCell>
        <mxCell id="9IX5NWJ7heMDqvXkrwjq-15" value="1..*" style="edgeLabel;html=1;align=center;verticalAlign=middle;resizable=0;points=[];" connectable="0" vertex="1" parent="9IX5NWJ7heMDqvXkrwjq-14">
          <mxGeometry x="0.7752" y="3" relative="1" as="geometry">
            <mxPoint x="6" y="-7" as="offset" />
          </mxGeometry>
        </mxCell>
        <mxCell id="9IX5NWJ7heMDqvXkrwjq-16" value="1" style="edgeLabel;html=1;align=center;verticalAlign=middle;resizable=0;points=[];" connectable="0" vertex="1" parent="9IX5NWJ7heMDqvXkrwjq-14">
          <mxGeometry x="-0.811" relative="1" as="geometry">
            <mxPoint x="9" as="offset" />
          </mxGeometry>
        </mxCell>
        <mxCell id="9IX5NWJ7heMDqvXkrwjq-17" value="Ubicada" style="endArrow=open;endFill=1;endSize=12;html=1;rounded=0;" edge="1" parent="1" source="9IX5NWJ7heMDqvXkrwjq-2" target="9IX5NWJ7heMDqvXkrwjq-13">
          <mxGeometry width="160" relative="1" as="geometry">
            <mxPoint x="-390" y="-555" as="sourcePoint" />
            <mxPoint x="-390" y="-475" as="targetPoint" />
            <mxPoint as="offset" />
          </mxGeometry>
        </mxCell>
        <mxCell id="9IX5NWJ7heMDqvXkrwjq-18" value="1" style="edgeLabel;html=1;align=center;verticalAlign=middle;resizable=0;points=[];" connectable="0" vertex="1" parent="9IX5NWJ7heMDqvXkrwjq-17">
          <mxGeometry x="0.7752" y="3" relative="1" as="geometry">
            <mxPoint x="16" y="-1" as="offset" />
          </mxGeometry>
        </mxCell>
        <mxCell id="9IX5NWJ7heMDqvXkrwjq-19" value="0..*" style="edgeLabel;html=1;align=center;verticalAlign=middle;resizable=0;points=[];" connectable="0" vertex="1" parent="9IX5NWJ7heMDqvXkrwjq-17">
          <mxGeometry x="-0.811" relative="1" as="geometry">
            <mxPoint x="-9" as="offset" />
          </mxGeometry>
        </mxCell>
        <mxCell id="9IX5NWJ7heMDqvXkrwjq-20" value="" style="endArrow=open;endFill=1;endSize=12;html=1;rounded=0;" edge="1" parent="1" source="9IX5NWJ7heMDqvXkrwjq-9" target="9IX5NWJ7heMDqvXkrwjq-1">
          <mxGeometry width="160" relative="1" as="geometry">
            <mxPoint x="-528" y="-805" as="sourcePoint" />
            <mxPoint x="-368" y="-805" as="targetPoint" />
          </mxGeometry>
        </mxCell>
        <mxCell id="9IX5NWJ7heMDqvXkrwjq-21" value="Espera" style="edgeLabel;html=1;align=center;verticalAlign=middle;resizable=0;points=[];" connectable="0" vertex="1" parent="9IX5NWJ7heMDqvXkrwjq-20">
          <mxGeometry x="-0.1209" y="2" relative="1" as="geometry">
            <mxPoint as="offset" />
          </mxGeometry>
        </mxCell>
        <mxCell id="9IX5NWJ7heMDqvXkrwjq-22" value="1..*" style="edgeLabel;html=1;align=center;verticalAlign=middle;resizable=0;points=[];" connectable="0" vertex="1" parent="9IX5NWJ7heMDqvXkrwjq-20">
          <mxGeometry x="0.7987" y="-1" relative="1" as="geometry">
            <mxPoint x="-20" y="-12" as="offset" />
          </mxGeometry>
        </mxCell>
        <mxCell id="9IX5NWJ7heMDqvXkrwjq-23" value="1..*" style="edgeLabel;html=1;align=center;verticalAlign=middle;resizable=0;points=[];" connectable="0" vertex="1" parent="9IX5NWJ7heMDqvXkrwjq-20">
          <mxGeometry x="-0.9385" y="1" relative="1" as="geometry">
            <mxPoint x="18" y="8" as="offset" />
          </mxGeometry>
        </mxCell>
        <mxCell id="9IX5NWJ7heMDqvXkrwjq-24" value="Lanza" style="endArrow=open;endFill=1;endSize=12;html=1;rounded=0;exitX=-0.002;exitY=0.519;exitDx=0;exitDy=0;exitPerimeter=0;" edge="1" parent="1" source="9IX5NWJ7heMDqvXkrwjq-8" target="9IX5NWJ7heMDqvXkrwjq-3">
          <mxGeometry x="0.0022" width="160" relative="1" as="geometry">
            <mxPoint x="-640" y="-690" as="sourcePoint" />
            <mxPoint x="-640" y="-610" as="targetPoint" />
            <mxPoint as="offset" />
          </mxGeometry>
        </mxCell>
        <mxCell id="9IX5NWJ7heMDqvXkrwjq-25" value="1..*" style="edgeLabel;html=1;align=center;verticalAlign=middle;resizable=0;points=[];" connectable="0" vertex="1" parent="9IX5NWJ7heMDqvXkrwjq-24">
          <mxGeometry x="0.7752" y="3" relative="1" as="geometry">
            <mxPoint x="12" y="-16" as="offset" />
          </mxGeometry>
        </mxCell>
        <mxCell id="9IX5NWJ7heMDqvXkrwjq-26" value="1" style="edgeLabel;html=1;align=center;verticalAlign=middle;resizable=0;points=[];" connectable="0" vertex="1" parent="9IX5NWJ7heMDqvXkrwjq-24">
          <mxGeometry x="-0.811" relative="1" as="geometry">
            <mxPoint x="2" y="-11" as="offset" />
          </mxGeometry>
        </mxCell>
        <mxCell id="9IX5NWJ7heMDqvXkrwjq-27" value="" style="endArrow=open;endFill=1;endSize=12;html=1;rounded=0;" edge="1" parent="1" source="9IX5NWJ7heMDqvXkrwjq-5" target="9IX5NWJ7heMDqvXkrwjq-4">
          <mxGeometry width="160" relative="1" as="geometry">
            <mxPoint x="-349" y="-710" as="sourcePoint" />
            <mxPoint x="-349" y="-550" as="targetPoint" />
          </mxGeometry>
        </mxCell>
        <mxCell id="9IX5NWJ7heMDqvXkrwjq-28" value="1" style="edgeLabel;html=1;align=center;verticalAlign=middle;resizable=0;points=[];" connectable="0" vertex="1" parent="9IX5NWJ7heMDqvXkrwjq-27">
          <mxGeometry x="-0.8153" y="-1" relative="1" as="geometry">
            <mxPoint x="10" as="offset" />
          </mxGeometry>
        </mxCell>
        <mxCell id="9IX5NWJ7heMDqvXkrwjq-29" value="1" style="edgeLabel;html=1;align=center;verticalAlign=middle;resizable=0;points=[];" connectable="0" vertex="1" parent="9IX5NWJ7heMDqvXkrwjq-27">
          <mxGeometry x="0.7753" y="-2" relative="1" as="geometry">
            <mxPoint x="9" y="-9" as="offset" />
          </mxGeometry>
        </mxCell>
        <mxCell id="9IX5NWJ7heMDqvXkrwjq-30" value="Configura" style="edgeLabel;html=1;align=center;verticalAlign=middle;resizable=0;points=[];" connectable="0" vertex="1" parent="9IX5NWJ7heMDqvXkrwjq-27">
          <mxGeometry x="-0.1415" y="-1" relative="1" as="geometry">
            <mxPoint as="offset" />
          </mxGeometry>
        </mxCell>
        <mxCell id="9IX5NWJ7heMDqvXkrwjq-31" value="&lt;font style=&quot;font-size:11px;font-family:Calibri;color:#000000;direction:ltr;letter-spacing:0px;line-height:120%;opacity:1&quot;&gt;Cielo&lt;br&gt;&lt;/font&gt;" style="verticalAlign=middle;align=center;vsdxID=7;fillColor=#FFFFFF;gradientColor=none;shape=stencil(nZBLDoAgDERP0z3SIyjew0SURgSD+Lu9kMZoXLhwN9O+tukAlrNpJg1SzDH4QW/URgNYgZTkjA4UkwJUgGXng+6DX1zLfmoymdXo17xh5zmRJ6Q42BWCfc2oJfdAr+Yv+AP9Cb7OJ3H/2JG1HNGz/84klThPVCc=);strokeColor=#000000;spacingTop=-1;spacingBottom=-1;spacingLeft=-1;spacingRight=-1;labelBackgroundColor=none;rounded=0;html=1;whiteSpace=wrap;" vertex="1" parent="1">
          <mxGeometry x="-338" y="-490" width="82" height="30" as="geometry" />
        </mxCell>
        <mxCell id="9IX5NWJ7heMDqvXkrwjq-32" value="&lt;font style=&quot;font-size:11px;font-family:Calibri;color:#000000;direction:ltr;letter-spacing:0px;line-height:120%;opacity:1&quot;&gt;Carcel&lt;br&gt;&lt;/font&gt;" style="verticalAlign=middle;align=center;vsdxID=7;fillColor=#FFFFFF;gradientColor=none;shape=stencil(nZBLDoAgDERP0z3SIyjew0SURgSD+Lu9kMZoXLhwN9O+tukAlrNpJg1SzDH4QW/URgNYgZTkjA4UkwJUgGXng+6DX1zLfmoymdXo17xh5zmRJ6Q42BWCfc2oJfdAr+Yv+AP9Cb7OJ3H/2JG1HNGz/84klThPVCc=);strokeColor=#000000;spacingTop=-1;spacingBottom=-1;spacingLeft=-1;spacingRight=-1;labelBackgroundColor=none;rounded=0;html=1;whiteSpace=wrap;" vertex="1" parent="1">
          <mxGeometry x="-460" y="-490" width="82" height="30" as="geometry" />
        </mxCell>
        <mxCell id="9IX5NWJ7heMDqvXkrwjq-33" value="" style="endArrow=diamondThin;endFill=1;endSize=24;html=1;rounded=0;" edge="1" parent="1" source="9IX5NWJ7heMDqvXkrwjq-32" target="9IX5NWJ7heMDqvXkrwjq-4">
          <mxGeometry width="160" relative="1" as="geometry">
            <mxPoint x="-420" y="-480" as="sourcePoint" />
            <mxPoint x="-378" y="-550" as="targetPoint" />
          </mxGeometry>
        </mxCell>
        <mxCell id="9IX5NWJ7heMDqvXkrwjq-34" value="1" style="edgeLabel;html=1;align=center;verticalAlign=middle;resizable=0;points=[];" connectable="0" vertex="1" parent="9IX5NWJ7heMDqvXkrwjq-33">
          <mxGeometry x="0.6641" y="2" relative="1" as="geometry">
            <mxPoint x="-9" as="offset" />
          </mxGeometry>
        </mxCell>
        <mxCell id="9IX5NWJ7heMDqvXkrwjq-35" value="*" style="edgeLabel;html=1;align=center;verticalAlign=middle;resizable=0;points=[];" connectable="0" vertex="1" parent="9IX5NWJ7heMDqvXkrwjq-33">
          <mxGeometry x="-0.6787" y="2" relative="1" as="geometry">
            <mxPoint x="-9" y="3" as="offset" />
          </mxGeometry>
        </mxCell>
        <mxCell id="9IX5NWJ7heMDqvXkrwjq-36" value="" style="endArrow=none;html=1;rounded=0;" edge="1" parent="1" source="9IX5NWJ7heMDqvXkrwjq-4" target="9IX5NWJ7heMDqvXkrwjq-31">
          <mxGeometry relative="1" as="geometry">
            <mxPoint x="-338" y="-575" as="sourcePoint" />
            <mxPoint x="-260" y="-520" as="targetPoint" />
          </mxGeometry>
        </mxCell>
        <mxCell id="9IX5NWJ7heMDqvXkrwjq-37" value="1" style="edgeLabel;html=1;align=center;verticalAlign=middle;resizable=0;points=[];" connectable="0" vertex="1" parent="9IX5NWJ7heMDqvXkrwjq-36">
          <mxGeometry x="-0.757" y="2" relative="1" as="geometry">
            <mxPoint y="-3" as="offset" />
          </mxGeometry>
        </mxCell>
        <mxCell id="9IX5NWJ7heMDqvXkrwjq-38" value="1" style="edgeLabel;html=1;align=center;verticalAlign=middle;resizable=0;points=[];" connectable="0" vertex="1" parent="9IX5NWJ7heMDqvXkrwjq-36">
          <mxGeometry x="0.6834" y="-1" relative="1" as="geometry">
            <mxPoint y="-6" as="offset" />
          </mxGeometry>
        </mxCell>
        <mxCell id="9IX5NWJ7heMDqvXkrwjq-39" value="1..*" style="endArrow=open;endFill=1;endSize=12;html=1;rounded=0;" edge="1" parent="1" source="9IX5NWJ7heMDqvXkrwjq-2" target="9IX5NWJ7heMDqvXkrwjq-4">
          <mxGeometry x="-0.7802" y="20" width="160" relative="1" as="geometry">
            <mxPoint x="-508" y="-585" as="sourcePoint" />
            <mxPoint x="-348" y="-585" as="targetPoint" />
            <mxPoint as="offset" />
          </mxGeometry>
        </mxCell>
        <mxCell id="9IX5NWJ7heMDqvXkrwjq-40" value="Se Desplaza" style="edgeLabel;html=1;align=center;verticalAlign=middle;resizable=0;points=[];" connectable="0" vertex="1" parent="9IX5NWJ7heMDqvXkrwjq-39">
          <mxGeometry x="-0.2202" y="3" relative="1" as="geometry">
            <mxPoint as="offset" />
          </mxGeometry>
        </mxCell>
        <mxCell id="9IX5NWJ7heMDqvXkrwjq-41" value="1" style="edgeLabel;html=1;align=center;verticalAlign=middle;resizable=0;points=[];" connectable="0" vertex="1" parent="9IX5NWJ7heMDqvXkrwjq-39">
          <mxGeometry x="0.8174" y="-1" relative="1" as="geometry">
            <mxPoint x="-10" y="-16" as="offset" />
          </mxGeometry>
        </mxCell>
        <mxCell id="9IX5NWJ7heMDqvXkrwjq-42" value="&lt;font style=&quot;font-size:11px;font-family:Calibri;color:#000000;direction:ltr;letter-spacing:0px;line-height:120%;opacity:1&quot;&gt;Partida&lt;br&gt;&lt;/font&gt;" style="verticalAlign=middle;align=center;vsdxID=7;fillColor=#FFFFFF;gradientColor=none;shape=stencil(nZBLDoAgDERP0z3SIyjew0SURgSD+Lu9kMZoXLhwN9O+tukAlrNpJg1SzDH4QW/URgNYgZTkjA4UkwJUgGXng+6DX1zLfmoymdXo17xh5zmRJ6Q42BWCfc2oJfdAr+Yv+AP9Cb7OJ3H/2JG1HNGz/84klThPVCc=);strokeColor=#000000;spacingTop=-1;spacingBottom=-1;spacingLeft=-1;spacingRight=-1;labelBackgroundColor=none;rounded=0;html=1;whiteSpace=wrap;" vertex="1" parent="1">
          <mxGeometry x="-420" y="-820" width="82" height="30" as="geometry" />
        </mxCell>
        <mxCell id="9IX5NWJ7heMDqvXkrwjq-43" value="" style="endArrow=open;endFill=1;endSize=12;html=1;rounded=0;" edge="1" parent="1" source="9IX5NWJ7heMDqvXkrwjq-5" target="9IX5NWJ7heMDqvXkrwjq-42">
          <mxGeometry width="160" relative="1" as="geometry">
            <mxPoint x="-369" y="-680" as="sourcePoint" />
            <mxPoint x="-369" y="-580" as="targetPoint" />
          </mxGeometry>
        </mxCell>
        <mxCell id="9IX5NWJ7heMDqvXkrwjq-44" value="1" style="edgeLabel;html=1;align=center;verticalAlign=middle;resizable=0;points=[];" connectable="0" vertex="1" parent="9IX5NWJ7heMDqvXkrwjq-43">
          <mxGeometry x="-0.8153" y="-1" relative="1" as="geometry">
            <mxPoint x="10" as="offset" />
          </mxGeometry>
        </mxCell>
        <mxCell id="9IX5NWJ7heMDqvXkrwjq-45" value="*" style="edgeLabel;html=1;align=center;verticalAlign=middle;resizable=0;points=[];" connectable="0" vertex="1" parent="9IX5NWJ7heMDqvXkrwjq-43">
          <mxGeometry x="0.7753" y="-2" relative="1" as="geometry">
            <mxPoint x="9" y="-9" as="offset" />
          </mxGeometry>
        </mxCell>
        <mxCell id="9IX5NWJ7heMDqvXkrwjq-46" value="Desarrolla" style="edgeLabel;html=1;align=center;verticalAlign=middle;resizable=0;points=[];" connectable="0" vertex="1" parent="9IX5NWJ7heMDqvXkrwjq-43">
          <mxGeometry x="-0.1415" y="-1" relative="1" as="geometry">
            <mxPoint as="offset" />
          </mxGeometry>
        </mxCell>
        <mxCell id="9IX5NWJ7heMDqvXkrwjq-47" value="&lt;font style=&quot;font-size:11px;font-family:Calibri;color:#000000;direction:ltr;letter-spacing:0px;line-height:120%;opacity:1&quot;&gt;Modo&lt;br&gt;&lt;/font&gt;" style="verticalAlign=middle;align=center;vsdxID=7;fillColor=#FFFFFF;gradientColor=none;shape=stencil(nZBLDoAgDERP0z3SIyjew0SURgSD+Lu9kMZoXLhwN9O+tukAlrNpJg1SzDH4QW/URgNYgZTkjA4UkwJUgGXng+6DX1zLfmoymdXo17xh5zmRJ6Q42BWCfc2oJfdAr+Yv+AP9Cb7OJ3H/2JG1HNGz/84klThPVCc=);strokeColor=#000000;spacingTop=-1;spacingBottom=-1;spacingLeft=-1;spacingRight=-1;labelBackgroundColor=none;rounded=0;html=1;whiteSpace=wrap;" vertex="1" parent="1">
          <mxGeometry x="-256" y="-820" width="82" height="30" as="geometry" />
        </mxCell>
        <mxCell id="9IX5NWJ7heMDqvXkrwjq-48" value="" style="endArrow=open;endFill=1;endSize=12;html=1;rounded=0;exitX=0.978;exitY=0.392;exitDx=0;exitDy=0;exitPerimeter=0;" edge="1" parent="1" source="9IX5NWJ7heMDqvXkrwjq-42" target="9IX5NWJ7heMDqvXkrwjq-47">
          <mxGeometry width="160" relative="1" as="geometry">
            <mxPoint x="-384" y="-710" as="sourcePoint" />
            <mxPoint x="-436" y="-760" as="targetPoint" />
          </mxGeometry>
        </mxCell>
        <mxCell id="9IX5NWJ7heMDqvXkrwjq-49" value="1" style="edgeLabel;html=1;align=center;verticalAlign=middle;resizable=0;points=[];" connectable="0" vertex="1" parent="9IX5NWJ7heMDqvXkrwjq-48">
          <mxGeometry x="-0.8153" y="-1" relative="1" as="geometry">
            <mxPoint x="2" y="-13" as="offset" />
          </mxGeometry>
        </mxCell>
        <mxCell id="9IX5NWJ7heMDqvXkrwjq-50" value="1" style="edgeLabel;html=1;align=center;verticalAlign=middle;resizable=0;points=[];" connectable="0" vertex="1" parent="9IX5NWJ7heMDqvXkrwjq-48">
          <mxGeometry x="0.7753" y="-2" relative="1" as="geometry">
            <mxPoint x="-4" y="-9" as="offset" />
          </mxGeometry>
        </mxCell>
        <mxCell id="9IX5NWJ7heMDqvXkrwjq-51" value="Tiene" style="edgeLabel;html=1;align=center;verticalAlign=middle;resizable=0;points=[];" connectable="0" vertex="1" parent="9IX5NWJ7heMDqvXkrwjq-48">
          <mxGeometry x="-0.1415" y="-1" relative="1" as="geometry">
            <mxPoint as="offset" />
          </mxGeometry>
        </mxCell>
        <mxCell id="9IX5NWJ7heMDqvXkrwjq-52" value="&lt;font style=&quot;font-size:11px;font-family:Calibri;color:#000000;direction:ltr;letter-spacing:0px;line-height:120%;opacity:1&quot;&gt;Reglas&lt;br&gt;&lt;/font&gt;" style="verticalAlign=middle;align=center;vsdxID=7;fillColor=#FFFFFF;gradientColor=none;shape=stencil(nZBLDoAgDERP0z3SIyjew0SURgSD+Lu9kMZoXLhwN9O+tukAlrNpJg1SzDH4QW/URgNYgZTkjA4UkwJUgGXng+6DX1zLfmoymdXo17xh5zmRJ6Q42BWCfc2oJfdAr+Yv+AP9Cb7OJ3H/2JG1HNGz/84klThPVCc=);strokeColor=#000000;spacingTop=-1;spacingBottom=-1;spacingLeft=-1;spacingRight=-1;labelBackgroundColor=none;rounded=0;html=1;whiteSpace=wrap;" vertex="1" parent="1">
          <mxGeometry x="-160" y="-740" width="82" height="30" as="geometry" />
        </mxCell>
        <mxCell id="9IX5NWJ7heMDqvXkrwjq-53" value="" style="endArrow=open;endFill=1;endSize=12;html=1;rounded=0;" edge="1" parent="1" source="9IX5NWJ7heMDqvXkrwjq-47" target="9IX5NWJ7heMDqvXkrwjq-52">
          <mxGeometry width="160" relative="1" as="geometry">
            <mxPoint x="-330" y="-798" as="sourcePoint" />
            <mxPoint x="-246" y="-796" as="targetPoint" />
          </mxGeometry>
        </mxCell>
        <mxCell id="9IX5NWJ7heMDqvXkrwjq-54" value="1" style="edgeLabel;html=1;align=center;verticalAlign=middle;resizable=0;points=[];" connectable="0" vertex="1" parent="9IX5NWJ7heMDqvXkrwjq-53">
          <mxGeometry x="-0.8153" y="-1" relative="1" as="geometry">
            <mxPoint x="10" as="offset" />
          </mxGeometry>
        </mxCell>
        <mxCell id="9IX5NWJ7heMDqvXkrwjq-55" value="1..*" style="edgeLabel;html=1;align=center;verticalAlign=middle;resizable=0;points=[];" connectable="0" vertex="1" parent="9IX5NWJ7heMDqvXkrwjq-53">
          <mxGeometry x="0.7753" y="-2" relative="1" as="geometry">
            <mxPoint x="9" y="-9" as="offset" />
          </mxGeometry>
        </mxCell>
        <mxCell id="9IX5NWJ7heMDqvXkrwjq-56" value="Tiene" style="edgeLabel;html=1;align=center;verticalAlign=middle;resizable=0;points=[];" connectable="0" vertex="1" parent="9IX5NWJ7heMDqvXkrwjq-53">
          <mxGeometry x="-0.1415" y="-1" relative="1" as="geometry">
            <mxPoint as="offset" />
          </mxGeometry>
        </mxCell>
      </root>
    </mxGraphModel>
  </diagram>
</mxfile>
